HIERARCHY
ROOT hip
{
  OFFSET 0 0 0
  CHANNELS 6 Xposition Yposition Zposition Zrotation Yrotation Xrotation
  JOINT abdomen
  {
    OFFSET 0 20.6881 -0.73152
    CHANNELS 3 Zrotation Xrotation Yrotation
    JOINT chest
    {
      OFFSET 0 11.7043 -0.48768
      CHANNELS 3 Zrotation Xrotation Yrotation
      JOINT neck
      {
        OFFSET 0 22.1894 -2.19456
        CHANNELS 3 Zrotation Xrotation Yrotation
        JOINT head
        {
          OFFSET -0.24384 7.07133 1.2192
          CHANNELS 3 Zrotation Xrotation Yrotation
          JOINT leftEye
          {
            OFFSET 4.14528 8.04674 8.04672
            CHANNELS 3 Zrotation Xrotation Yrotation
            End Site
            {
              OFFSET 1 0 0
            }
          }
          JOINT rightEye
          {
            OFFSET -3.6576 8.04674 8.04672
            CHANNELS 3 Zrotation Xrotation Yrotation
            End Site
            {
              OFFSET 1 0 0
            }
          }
        }
      }
      JOINT rCollar
      {
        OFFSET -2.68224 19.2634 -4.8768
        CHANNELS 3 Zrotation Xrotation Yrotation
        JOINT rShldr
        {
          OFFSET -8.77824 -1.95073 1.46304
          CHANNELS 3 Zrotation Xrotation Yrotation
          JOINT rForeArm
          {
            OFFSET -28.1742 -1.7115 0.48768
            CHANNELS 3 Zrotation Xrotation Yrotation
            JOINT rHand
            {
              OFFSET -22.5879 0.773209 7.07136
              CHANNELS 3 Zrotation Xrotation Yrotation
              JOINT rThumb1
              {
                OFFSET -1.2192 -0.487915 3.41376
                CHANNELS 3 Zrotation Xrotation Yrotation
                JOINT rThumb2
                {
                  OFFSET -3.37035 -0.52449 3.41376
                  CHANNELS 3 Zrotation Xrotation Yrotation
                  End Site
                  {
                    OFFSET -1.78271 -1.18214 1.43049
                  }
                }
              }
              JOINT rIndex1
              {
                OFFSET -7.75947 0.938293 5.60832
                CHANNELS 3 Zrotation Xrotation Yrotation
                JOINT rIndex2
                {
                  OFFSET -2.54057 -0.884171 1.56538
                  CHANNELS 3 Zrotation Xrotation Yrotation
                  End Site
                  {
                    OFFSET -1.62519 -0.234802 1.16502
                  }
                }
              }
              JOINT rMid1
              {
                OFFSET -8.24714 1.18213 3.41376
                CHANNELS 3 Zrotation Xrotation Yrotation
                JOINT rMid2
                {
                  OFFSET -3.10165 -0.590103 1.0647
                  CHANNELS 3 Zrotation Xrotation Yrotation
                  End Site
                  {
                    OFFSET -2.48547 -0.328903 0.83742
                  }
                }
              }
              JOINT rRing1
              {
                OFFSET -8.82822 0.546677 1.51678
                CHANNELS 3 Zrotation Xrotation Yrotation
                JOINT rRing2
                {
                  OFFSET -2.60934 -0.819778 -0.0198488
                  CHANNELS 3 Zrotation Xrotation Yrotation
                  End Site
                  {
                    OFFSET -2.33842 -0.294052 0.168128
                  }
                }
              }
              JOINT rPinky1
              {
                OFFSET -8.27202 -0.0477905 -0.4584
                CHANNELS 3 Zrotation Xrotation Yrotation
                JOINT rPinky2
                {
                  OFFSET -1.82734 -0.647385 -0.700984
                  CHANNELS 3 Zrotation Xrotation Yrotation
                  End Site
                  {
                    OFFSET -1.69225 -0.51767 -0.607171
                  }
                }
              }
            }
          }
        }
      }
      JOINT lCollar
      {
        OFFSET 2.68224 19.2634 -4.8768
        CHANNELS 3 Zrotation Xrotation Yrotation
        JOINT lShldr
        {
          OFFSET 8.77824 -1.95073 1.46304
          CHANNELS 3 Zrotation Xrotation Yrotation
          JOINT lForeArm
          {
            OFFSET 28.1742 -1.7115 0.48768
            CHANNELS 3 Zrotation Xrotation Yrotation
            JOINT lHand
            {
              OFFSET 22.5879 0.773209 7.07136
              CHANNELS 3 Zrotation Xrotation Yrotation
              JOINT lThumb1
              {
                OFFSET 1.2192 -0.487915 3.41376
                CHANNELS 3 Zrotation Xrotation Yrotation
                JOINT lThumb2
                {
                  OFFSET 3.37035 -0.52449 3.41376
                  CHANNELS 3 Zrotation Xrotation Yrotation
                  End Site
                  {
                    OFFSET 1.78271 -1.18214 1.43049
                  }
                }
              }
              JOINT lIndex1
              {
                OFFSET 7.75947 0.938293 5.60832
                CHANNELS 3 Zrotation Xrotation Yrotation
                JOINT lIndex2
                {
                  OFFSET 2.54057 -0.884171 1.56538
                  CHANNELS 3 Zrotation Xrotation Yrotation
                  End Site
                  {
                    OFFSET 1.62519 -0.234802 1.16502
                  }
                }
              }
              JOINT lMid1
              {
                OFFSET 8.24714 1.18213 3.41376
                CHANNELS 3 Zrotation Xrotation Yrotation
                JOINT lMid2
                {
                  OFFSET 3.10165 -0.590103 1.0647
                  CHANNELS 3 Zrotation Xrotation Yrotation
                  End Site
                  {
                    OFFSET 2.48547 -0.328903 0.83742
                  }
                }
              }
              JOINT lRing1
              {
                OFFSET 8.82822 0.546677 1.51678
                CHANNELS 3 Zrotation Xrotation Yrotation
                JOINT lRing2
                {
                  OFFSET 2.60934 -0.819778 -0.0198488
                  CHANNELS 3 Zrotation Xrotation Yrotation
                  End Site
                  {
                    OFFSET 2.33842 -0.294052 0.168128
                  }
                }
              }
              JOINT lPinky1
              {
                OFFSET 8.27202 -0.0477905 -0.4584
                CHANNELS 3 Zrotation Xrotation Yrotation
                JOINT lPinky2
                {
                  OFFSET 1.82734 -0.647385 -0.700984
                  CHANNELS 3 Zrotation Xrotation Yrotation
                  End Site
                  {
                    OFFSET 1.69225 -0.51767 -0.607171
                  }
                }
              }
            }
          }
        }
      }
    }
  }
  JOINT rButtock
  {
    OFFSET -8.77824 4.35084 1.2192
    CHANNELS 3 Zrotation Xrotation Yrotation
    JOINT rThigh
    {
      OFFSET 0 -1.70687 -2.19456
      CHANNELS 3 Zrotation Xrotation Yrotation
      JOINT rShin
      {
        OFFSET 0 -36.8199 0.73152
        CHANNELS 3 Zrotation Xrotation Yrotation
        JOINT rFoot
        {
          OFFSET 0.73152 -45.1104 -5.12064
          CHANNELS 3 Zrotation Xrotation Yrotation
          End Site
          {
            OFFSET -1.1221 -3.69964 12.103
          }
        }
      }
    }
  }
  JOINT lButtock
  {
    OFFSET 8.77824 4.35084 1.2192
    CHANNELS 3 Zrotation Xrotation Yrotation
    JOINT lThigh
    {
      OFFSET 0 -1.70687 -2.19456
      CHANNELS 3 Zrotation Xrotation Yrotation
      JOINT lShin
      {
        OFFSET 0 -36.8199 0.73152
        CHANNELS 3 Zrotation Xrotation Yrotation
        JOINT lFoot
        {
          OFFSET -0.73152 -45.1104 -5.12064
          CHANNELS 3 Zrotation Xrotation Yrotation
          End Site
          {
            OFFSET 1.1221 -3.69964 12.103
          }
        }
      }
    }
  }
}
MOTION
Frames:	4
Frame Time:	0.00833333
52.0521 85.5269 130.943 0.0 0.0 0.0 2.34099 -0.00222384 0.0637207 0.64659 0.00595041 0.111937 -2.98001e-14 2.38542e-15 3.47873e-16 -8.9846e-14 1.59028e-14 1.18805e-15 -0.0 0.0 0.0 -0.0 0.0 0.0 -1.48105e-14 1.37635e-16 2.48481e-16 -3.13459e-13 2.99419e-15 4.77083e-15 -5.43298e-12 1.71829e-12 1.49486e-13 -6.21869e-11 -1.12241e-12 7.63333e-13 -1.46697e-10 1.28792e-12 1.99421e-12 -2.53351e-10 2.22003e-12 3.42864e-12 -1.46694e-10 1.28693e-12 1.98467e-12 7.73091 5.47488 0.417314 -1.46697e-10 1.28753e-12 1.99103e-12 2.90554 0.965183 0.102902 -1.46688e-10 1.28822e-12 1.98228e-12 10.2786 0.731801 0.0259123 -1.46703e-10 1.29011e-12 1.98149e-12 2.22167 -0.733487 -0.20892 -1.50082e-14 1.37247e-16 1.49089e-16 -3.16873e-13 3.19919e-15 2.38542e-15 -5.43512e-12 -1.52527e-12 1.20861e-13 -6.21899e-11 2.13999e-12 7.82416e-13 -1.46709e-10 1.32577e-12 1.96876e-12 -2.53351e-10 2.28682e-12 3.42705e-12 -1.46714e-10 1.3251e-12 1.97831e-12 -7.73091 5.47488 -0.417314 -1.46709e-10 1.3256e-12 1.97194e-12 -2.90554 0.965183 -0.102902 -1.46715e-10 1.3255e-12 1.97831e-12 -10.2786 0.731801 -0.0259123 -1.46705e-10 1.32947e-12 1.98467e-12 -2.22167 -0.733487 0.20892 -2.03217e-16 0.0 -3.88251e-19 2.21587 -8.02969 -0.231386 0.00606924 8.9736 0.152049 -0.478092 -0.95142 0.0349071 2.03217e-16 0.0 3.88251e-19 1.35245 -1.92788 -0.00536433 0.00846377 -2.07867 0.0694353 0.423462 3.99898 -0.127231
52.9182 84.7679 119.294 -179.052 -1.701 -179.473 3.12323 1.4177 1.48947 0.233921 -2.39167 0.536044 -2.49959 3.34044 -1.23246 3.96679 -5.31563 -1.7505 -0.0 0.0 0.0 -0.0 0.0 0.0 -4.04286e-14 3.51909e-15 3.16697e-15 18.1581 1.48156 -5.66056 -4.66701 -2.21783 7.18087 0.1444 8.44732 1.14114 -6.32965e-11 -7.1965e-11 1.43329e-10 -1.05796e-10 -1.25668e-10 2.46227e-10 -6.32971e-11 -7.19621e-11 1.43317e-10 7.73091 5.47488 0.417314 -6.32975e-11 -7.19637e-11 1.43326e-10 2.90554 0.965183 0.102902 -6.32883e-11 -7.19628e-11 1.43322e-10 10.2786 0.731801 0.0259123 -6.32996e-11 -7.19616e-11 1.43322e-10 2.22167 -0.733487 -0.20892 -4.05905e-14 3.52005e-15 3.01089e-15 -17.1184 -1.10832 5.56294 5.11265 -2.53362 -7.74362 -0.0121769 2.45398 -0.343752 -8.28125e-11 -1.72444e-10 1.63067e-10 -1.42521e-10 -2.98226e-10 2.82211e-10 -8.28173e-11 -1.72446e-10 1.63077e-10 -7.73091 5.47488 -0.417314 -8.28129e-11 -1.72445e-10 1.63072e-10 -2.90554 0.965183 -0.102902 -8.28187e-11 -1.72445e-10 1.63076e-10 -10.2786 0.731801 -0.0259123 -8.28096e-11 -1.72442e-10 1.6308e-10 -2.22167 -0.733487 0.20892 -2.03217e-16 0.0 -3.88251e-19 4.72412 -7.09231 4.7982 0.00913927 11.4328 0.210458 -1.21682 -4.23536 -8.96736 2.03217e-16 0.0 3.88251e-19 0.716157 -3.38268 -6.21942 -0.0119957 3.74593 -0.113851 1.0522 -1.74666 4.83639
52.9016 84.7626 119.305 -179.185 -1.5459 -179.423 3.87093 2.91391 3.00403 -0.165217 -4.92146 0.98826 -4.99118 6.86957 -2.55173 7.81464 -10.9191 -3.65457 -0.0 0.0 0.0 -0.0 0.0 0.0 -6.89347e-14 6.5939e-15 6.4574e-15 37.6564 2.96775 -11.6356 -9.00508 -4.44913 14.8122 -0.0845162 17.3516 2.43098 2.08809e-11 -1.50779e-10 3.01097e-10 4.3508e-11 -2.63391e-10 5.17433e-10 2.08767e-11 -1.50772e-10 3.01082e-10 7.73091 5.47488 0.417314 2.08792e-11 -1.50776e-10 3.01094e-10 2.90554 0.965183 0.102902 2.08883e-11 -1.50775e-10 3.01095e-10 10.2786 0.731801 0.0259123 2.08805e-11 -1.50774e-10 3.01098e-10 2.22167 -0.733487 -0.20892 -6.90574e-14 6.59643e-15 6.23997e-15 -34.963 -2.24843 11.4337 9.7848 -5.0617 -15.9852 0.0070663 5.02835 -0.706512 -1.71925e-11 -3.76269e-10 3.4514e-10 -2.86308e-11 -6.50745e-10 5.97335e-10 -1.71974e-11 -3.76272e-10 3.45151e-10 -7.73091 5.47488 -0.417314 -1.71932e-11 -3.76272e-10 3.45147e-10 -2.90554 0.965183 -0.102902 -1.71992e-11 -3.76271e-10 3.4515e-10 -10.2786 0.731801 -0.0259123 -1.71913e-11 -3.76268e-10 3.45149e-10 -2.22167 -0.733487 0.20892 -2.03217e-16 0.0 -3.88251e-19 7.19493 -6.05366 10.0903 0.00678358 14.0319 0.273763 -3.10941 -7.41472 -18.5938 2.03217e-16 0.0 3.88251e-19 -0.299595 -4.8357 -12.8125 0.00740876 9.90348 -0.311673 2.80045 -7.71241 10.1673
52.8885 84.754 119.324 -179.307 -1.3834 -179.345 4.47544 4.24676 4.35157 -0.484186 -7.18513 1.39381 -7.0623 10.0026 -3.74816 10.8946 -15.8861 -5.43714 -0.0 0.0 0.0 -0.0 0.0 0.0 -9.16647e-14 1.0282e-14 9.00394e-15 55.3404 4.27146 -17.0247 -12.3687 -6.23634 21.661 -0.666562 25.2995 3.74601 1.03505e-10 -2.18471e-10 4.25998e-10 1.89312e-10 -3.81444e-10 7.31825e-10 1.03497e-10 -2.1846e-10 4.2598e-10 7.73091 5.47488 0.417314 1.03502e-10 -2.18466e-10 4.25995e-10 2.90554 0.965183 0.102902 1.03511e-10 -2.18465e-10 4.26001e-10 10.2786 0.731801 0.0259123 1.03506e-10 -2.18465e-10 4.26004e-10 2.22167 -0.733487 -0.20892 -9.17551e-14 1.02856e-14 8.73449e-15 -50.7189 -3.19988 16.7125 13.333 -7.04671 -23.3951 0.0524263 7.36086 -1.03887 4.49807e-11 -5.19984e-10 4.85263e-10 7.91372e-11 -8.99251e-10 8.3978e-10 4.49757e-11 -5.19988e-10 4.85275e-10 -7.73091 5.47488 -0.417314 4.49797e-11 -5.19987e-10 4.85272e-10 -2.90554 0.965183 -0.102902 4.49736e-11 -5.19986e-10 4.85272e-10 -10.2786 0.731801 -0.0259123 4.49804e-11 -5.19984e-10 4.85269e-10 -2.22167 -0.733487 0.20892 -2.03217e-16 0.0 -3.88251e-19 9.24474 -5.11681 14.8028 -0.000440005 16.3511 0.331895 -5.69685 -9.76183 -27.3257 2.03217e-16 0.0 3.88251e-19 -1.48668 -6.01864 -18.7219 0.0618669 15.3946 -0.497451 5.31814 -12.8119 15.1419
